<?xml version="1.0" encoding="UTF-8"?>
<svg width="196px" height="47px" viewBox="0 0 196 47" version="1.1" xmlns="http://www.w3.org/2000/svg" xmlns:xlink="http://www.w3.org/1999/xlink">
    <!-- Generator: Sketch 48.2 (47327) - http://www.bohemiancoding.com/sketch -->
    <title>notemask-logo</title>
    <desc>Created with Sketch.</desc>
    <defs></defs>
    <g id="Notemask---Home" stroke="none" stroke-width="1" fill="none" fill-rule="evenodd" transform="translate(-320.000000, -40.000000)">
        <g id="notemask-logo" transform="translate(320.000000, 40.000000)">
            <g id="Group-3" transform="translate(57.000000, 13.000000)">
                <path d="M12.942952,14.0701262 L12.942952,0 L17.8809029,0 L17.8809029,21.598878 L12.697588,21.598878 L4.96862138,7.71388499 L4.96862138,21.598878 L0,21.598878 L0,0 L5.18331489,0 L12.942952,14.0701262 Z M28.0109316,22 C26.7432112,22 25.6033023,21.7891559 24.5911706,21.3674614 C23.579039,20.9457669 22.7202735,20.3800877 22.0148484,19.6704067 C21.3094233,18.9607258 20.7675832,18.1327771 20.3893118,17.1865358 C20.0110404,16.2402945 19.8219075,15.2323569 19.8219075,14.1626928 C19.8219075,13.0930288 20.0110404,12.0850912 20.3893118,11.1388499 C20.7675832,10.1926086 21.3094233,9.36465993 22.0148484,8.65497896 C22.7202735,7.94529799 23.579039,7.37961875 24.5911706,6.95792426 C25.6033023,6.53622978 26.7432112,6.32538569 28.0109316,6.32538569 C29.2990992,6.32538569 30.4492315,6.53622978 31.4613631,6.95792426 C32.4734948,7.37961875 33.3322602,7.94529799 34.0376853,8.65497896 C34.7431104,9.36465993 35.2849505,10.1926086 35.663222,11.1388499 C36.0414934,12.0850912 36.2306262,13.0930288 36.2306262,14.1626928 C36.2306262,15.2323569 36.0414934,16.2402945 35.663222,17.1865358 C35.2849505,18.1327771 34.7431104,18.9607258 34.0376853,19.6704067 C33.3322602,20.3800877 32.4734948,20.9457669 31.4613631,21.3674614 C30.4492315,21.7891559 29.2990992,22 28.0109316,22 Z M28.0109316,17.9579243 C28.5425563,17.9579243 29.0281678,17.860216 29.4677805,17.6647966 C29.9073932,17.4693772 30.2805473,17.1968227 30.5872538,16.8471248 C30.8939604,16.497427 31.1342102,16.0963089 31.3080106,15.6437588 C31.481811,15.1912086 31.5687099,14.6975249 31.5687099,14.1626928 C31.5687099,13.6484313 31.481811,13.1598901 31.3080106,12.6970547 C31.1342102,12.2342193 30.8939604,11.8331013 30.5872538,11.4936886 C30.2805473,11.154276 29.9073932,10.8817215 29.4677805,10.6760168 C29.0281678,10.4703122 28.5425563,10.3674614 28.0109316,10.3674614 C27.4793069,10.3674614 26.9988072,10.4703122 26.569418,10.6760168 C26.1400288,10.8817215 25.7719865,11.154276 25.4652799,11.4936886 C25.1585734,11.8331013 24.9234352,12.2342193 24.7598584,12.6970547 C24.5962815,13.1598901 24.5144944,13.6484313 24.5144944,14.1626928 C24.5144944,14.6975249 24.5962815,15.1912086 24.7598584,15.6437588 C24.9234352,16.0963089 25.1585734,16.497427 25.4652799,16.8471248 C25.7719865,17.1968227 26.1400288,17.4693772 26.569418,17.6647966 C26.9988072,17.860216 27.4793069,17.9579243 28.0109316,17.9579243 Z M47.3421111,21.598878 C46.9945103,21.6605894 46.5600159,21.7171573 46.0386147,21.7685835 C45.5172136,21.8200096 44.9089214,21.8457223 44.2137198,21.8457223 C43.661648,21.8457223 43.0789143,21.804582 42.4655012,21.7223001 C41.8520881,21.6400183 41.2846895,21.4291742 40.7632883,21.0897616 C40.2418872,20.7503489 39.8125045,20.22581 39.4751272,19.516129 C39.13775,18.8064481 38.969064,17.8345083 38.969064,16.6002805 L38.969064,10.2440393 L36.6381058,10.2440393 L36.6381058,6.72650771 L38.969064,6.72650771 L38.969064,2.3141655 L43.6309803,2.3141655 L43.6309803,6.72650771 L47.0047356,6.72650771 L47.0047356,10.2440393 L43.6309803,10.2440393 L43.6309803,15.5511921 C43.6309803,16.1065946 43.6820973,16.548853 43.7843328,16.8779804 C43.8865683,17.2071078 44.0296959,17.4590922 44.2137198,17.6339411 C44.3977438,17.80879 44.6124352,17.9270684 44.8578004,17.9887798 C45.1031656,18.0504912 45.368974,18.0813464 45.6552335,18.0813464 C45.9414929,18.0813464 46.2379715,18.0762039 46.544678,18.0659187 C46.8513846,18.0556334 47.1171929,18.0299207 47.3421111,17.9887798 L47.3421111,21.598878 Z M52.1048019,15.3043478 C52.1252491,15.756898 52.1917011,16.1837287 52.3041602,16.5848527 C52.4166193,16.9859768 52.6006405,17.3356694 52.8562293,17.6339411 C53.1118181,17.9322128 53.4440785,18.1687696 53.8530206,18.3436185 C54.2619627,18.5184674 54.7731326,18.6058906 55.3865457,18.6058906 C56.2044298,18.6058906 56.8229455,18.4413294 57.2421111,18.112202 C57.6612767,17.7830746 57.9526436,17.3819565 58.1162204,16.9088359 L62.7167958,16.9088359 C62.6145602,17.6082316 62.3743104,18.2664766 61.9960389,18.8835905 C61.6177675,19.5007043 61.116821,20.0406709 60.4931843,20.5035063 C59.8695477,20.9663417 59.133463,21.331462 58.2849082,21.598878 C57.4363534,21.866294 56.4804656,22 55.4172162,22 C54.1290487,22 52.9891397,21.8097261 51.9974552,21.4291725 C51.0057707,21.0486189 50.1725637,20.5086524 49.4978092,19.8092567 C48.8230548,19.1098609 48.3118849,18.2819122 47.9642841,17.3253857 C47.6166834,16.3688592 47.4428856,15.3146388 47.4428856,14.1626928 C47.4428856,13.0724583 47.6115717,12.0542357 47.9489489,11.1079944 C48.2863261,10.1617531 48.7872726,9.33380439 49.4518035,8.62412342 C50.1163344,7.91444245 50.9342063,7.35390575 51.9054437,6.94249649 C52.8766811,6.53108724 54.0063667,6.32538569 55.2945342,6.32538569 C56.4600191,6.32538569 57.5079175,6.51051708 58.4382607,6.88078541 C59.3686039,7.25105374 60.166029,7.74473745 60.8305599,8.36185133 C61.4950907,8.97896522 62.0062607,9.69892062 62.364085,10.5217391 C62.7219093,11.3445576 62.9008188,12.2085041 62.9008188,13.1136045 C62.9008188,13.4221614 62.8957071,13.7512839 62.8854835,14.1009818 C62.87526,14.4506796 62.8292547,14.8517976 62.7474663,15.3043478 L52.1048019,15.3043478 Z M55.2638637,9.47265077 C54.343744,9.47265077 53.5872125,9.74006278 52.9942465,10.2748948 C52.4012805,10.8097268 52.1048019,11.5811076 52.1048019,12.5890603 L58.3002434,12.5890603 C58.3002434,11.6222486 58.0191,10.8611528 57.4568046,10.3057504 C56.8945092,9.75034785 56.1635363,9.47265077 55.2638637,9.47265077 Z" id="Notemask-Copy" fill="#F3EDDB"></path>
                <path d="M83.4863244,21.598878 L83.4863244,13.5764376 C83.4863244,12.5684849 83.3074149,11.7816765 82.9495906,11.2159888 C82.5917663,10.6503011 82.0141443,10.3674614 81.2167072,10.3674614 C80.8691065,10.3674614 80.5419577,10.4291719 80.2352512,10.5525947 C79.9285446,10.6760174 79.6627362,10.881719 79.4378181,11.1697055 C79.2129,11.4576919 79.0391022,11.8433823 78.9164196,12.3267882 C78.7937369,12.8101941 78.7323965,13.4118711 78.7323965,14.1318373 L78.7323965,21.598878 L74.1931622,21.598878 L74.1931622,13.545582 C74.1931622,12.5376294 74.0193644,11.7559635 73.6717637,11.200561 C73.3241629,10.6451585 72.761876,10.3674614 71.984886,10.3674614 C71.6168382,10.3674614 71.279466,10.4291719 70.9727595,10.5525947 C70.6660529,10.6760174 70.4002445,10.8868615 70.1753264,11.1851332 C69.9504083,11.483405 69.7714988,11.8793804 69.6385926,12.3730715 C69.5056864,12.8667626 69.4392343,13.4838673 69.4392343,14.2244039 L69.4392343,21.598878 L64.9,21.598878 L64.9,6.72650771 L69.4392343,6.72650771 L69.4392343,8.88639551 C69.766388,8.18699978 70.2980047,7.5904653 71.0341005,7.09677419 C71.7701962,6.60308309 72.6596319,6.35624123 73.7024342,6.35624123 C74.9906017,6.35624123 75.9822714,6.61336816 76.6774729,7.12762973 C77.3726744,7.6418913 77.8736209,8.27956609 78.1803275,9.04067321 C78.5688225,8.25899562 79.1617796,7.6161783 79.9592166,7.11220196 C80.7566537,6.60822562 81.7074298,6.35624123 82.8115734,6.35624123 C83.8748228,6.35624123 84.7438116,6.52594501 85.4185661,6.86535764 C86.0933205,7.20477028 86.6249372,7.65731367 87.0134322,8.2230014 C87.4019271,8.78868913 87.6626238,9.43664899 87.79553,10.1669004 C87.9284362,10.8971519 87.9948882,11.653105 87.9948882,12.4347826 L87.9948882,21.598878 L83.4863244,21.598878 Z M98.002235,17.9579243 C98.5338597,17.9579243 99.0143594,17.8550735 99.4437486,17.6493689 C99.8731378,17.4436642 100.24118,17.1711097 100.547887,16.8316971 C100.854593,16.4922844 101.094843,16.0911664 101.268644,15.628331 C101.442444,15.1654956 101.529343,14.6769544 101.529343,14.1626928 C101.529343,13.6484313 101.442444,13.1650327 101.268644,12.7124825 C101.094843,12.2599323 100.854593,11.8588143 100.547887,11.5091164 C100.24118,11.1594185 99.8731378,10.8817215 99.4437486,10.6760168 C99.0143594,10.4703122 98.5338597,10.3674614 98.002235,10.3674614 C97.4706103,10.3674614 96.9901106,10.4703122 96.5607214,10.6760168 C96.1313322,10.8817215 95.7632899,11.1594185 95.4565833,11.5091164 C95.1498768,11.8588143 94.9096269,12.2599323 94.7358265,12.7124825 C94.5620261,13.1650327 94.4751272,13.6484313 94.4751272,14.1626928 C94.4751272,14.6769544 94.5620261,15.1654956 94.7358265,15.628331 C94.9096269,16.0911664 95.1498768,16.4922844 95.4565833,16.8316971 C95.7632899,17.1711097 96.1313322,17.4436642 96.5607214,17.6493689 C96.9901106,17.8550735 97.4706103,17.9579243 98.002235,17.9579243 Z M106.22193,6.72650771 L106.22193,21.598878 L101.529343,21.598878 L101.529343,19.5007013 C101.345319,19.8503991 101.099957,20.1743791 100.793251,20.4726508 C100.486544,20.7709225 100.133837,21.0280494 99.7351184,21.2440393 C99.3363999,21.4600291 98.9019054,21.6348754 98.431622,21.7685835 C97.9613387,21.9022915 97.4910623,21.9691445 97.0207789,21.9691445 C95.9575295,21.9691445 94.981195,21.7685855 94.091746,21.3674614 C93.2022969,20.9663374 92.4406538,20.4212283 91.8067935,19.7321178 C91.1729333,19.0430073 90.6822102,18.2202011 90.3346094,17.2636746 C89.9870087,16.3071481 89.8132109,15.2734978 89.8132109,14.1626928 C89.8132109,13.0518879 89.9870087,12.0182376 90.3346094,11.0617111 C90.6822102,10.1051846 91.1729333,9.28237839 91.8067935,8.59326788 C92.4406538,7.90415738 93.2022969,7.35904829 94.091746,6.95792426 C94.981195,6.55680024 95.9575295,6.35624123 97.0207789,6.35624123 C97.4910623,6.35624123 97.9613387,6.42309424 98.431622,6.55680224 C98.9019054,6.69051025 99.3363999,6.8704991 99.7351184,7.09677419 C100.133837,7.32304928 100.486544,7.59046129 100.793251,7.89901823 C101.099957,8.20757518 101.345319,8.52641257 101.529343,8.85553997 L101.529343,6.72650771 L106.22193,6.72650771 Z M116.873357,12.8359046 C117.527664,13.0210388 118.141068,13.2215978 118.713587,13.4375877 C119.286106,13.6535775 119.787053,13.9209895 120.216442,14.2398317 C120.645831,14.5586739 120.988315,14.9546493 121.243904,15.42777 C121.499492,15.9008906 121.627285,16.4974251 121.627285,17.2173913 C121.627285,18.1019212 121.453487,18.8475893 121.105886,19.454418 C120.758285,20.0612466 120.277786,20.5549303 119.664373,20.9354839 C119.05096,21.3160374 118.340433,21.588592 117.532773,21.7531557 C116.725112,21.9177194 115.861235,22 114.941115,22 C112.835064,22 111.173761,21.5371715 109.957159,20.6115007 C108.740556,19.6858299 108.132264,18.3590549 108.132264,16.631136 L112.732839,16.631136 C112.732839,17.4128136 112.952642,17.9733503 113.392255,18.312763 C113.831868,18.6521756 114.399266,18.8218794 115.094468,18.8218794 C115.666987,18.8218794 116.132151,18.7138861 116.489976,18.4978962 C116.8478,18.2819064 117.026709,17.9270712 117.026709,17.4333801 C117.026709,17.1453936 116.950034,16.9139794 116.796681,16.7391304 C116.643327,16.5642815 116.408189,16.3997203 116.091259,16.2454418 C115.774329,16.0911633 115.365393,15.9368872 114.864439,15.7826087 C114.363485,15.6283302 113.765416,15.4380563 113.070215,15.2117812 C112.456802,15.026647 111.874068,14.826088 111.321996,14.6100982 C110.769924,14.3941083 110.284313,14.1318388 109.865147,13.8232819 C109.445982,13.514725 109.113721,13.123892 108.868356,12.6507714 C108.622991,12.1776507 108.50031,11.5811163 108.50031,10.8611501 C108.50031,9.31836536 109.088155,8.1767218 110.263864,7.43618513 C111.439572,6.69564847 113.029311,6.32538569 115.033127,6.32538569 C116.096376,6.32538569 117.031817,6.45394916 117.839478,6.71107994 C118.647138,6.96821073 119.311659,7.32304589 119.83306,7.77559607 C120.354462,8.22814626 120.748062,8.76297027 121.013875,9.38008415 C121.279687,9.99719804 121.412591,10.655443 121.412591,11.3548387 L116.781345,11.3548387 C116.781345,10.7377248 116.622883,10.2594687 116.305953,9.9200561 C115.989023,9.58064346 115.503411,9.41093969 114.849104,9.41093969 C114.37882,9.41093969 113.969884,9.518933 113.622284,9.73492286 C113.274683,9.95091272 113.100885,10.2851777 113.100885,10.7377279 C113.100885,11.0051439 113.182672,11.2262731 113.346249,11.401122 C113.509826,11.575971 113.750076,11.7353896 114.067006,11.8793829 C114.383936,12.0233761 114.777537,12.1673672 115.24782,12.3113604 C115.718104,12.4553537 116.259944,12.6302 116.873357,12.8359046 Z M132.73877,14.1626928 L138.474154,21.598878 L132.892122,21.598878 L128.352888,15.3660589 L128.352888,21.598878 L123.660301,21.598878 L123.660301,0 L128.352888,0 L128.352888,13.0210379 L132.922793,6.72650771 L138.504824,6.72650771 L132.73877,14.1626928 Z" id="Notemask-Copy-2" fill="#E26D56"></path>
            </g>
            <g id="Group-5">
                <rect id="Rectangle-6" fill="#F3EDDB" x="6" y="17" width="21" height="3"></rect>
                <rect id="Rectangle-6-Copy-3" fill="#F3EDDB" x="6" y="11" width="10" height="3"></rect>
                <path d="M1.5,1.5 L1.5,41.5 L22.7093566,41.5 L31.5,32.1667242 L31.5,1.5 L1.5,1.5 Z" id="Rectangle-5" stroke="#E26D56" stroke-width="3" transform="translate(16.500000, 21.500000) scale(1, -1) translate(-16.500000, -21.500000) "></path>
                <rect id="Rectangle-10" fill="#323453" x="3" y="40" width="27" height="3"></rect>
                <rect id="Rectangle-11" fill="#E26D56" x="6" y="31" width="3" height="16"></rect>
                <rect id="Rectangle-11-Copy" fill="#E26D56" x="12" y="31" width="3" height="16"></rect>
                <rect id="Rectangle-11-Copy-2" fill="#E26D56" x="18" y="31" width="3" height="16"></rect>
                <rect id="Rectangle-11-Copy-3" fill="#E26D56" x="24" y="31" width="3" height="16"></rect>
                <polygon id="Rectangle-12" fill="#E26D56" points="21 1 27.4166667 5.54545455 32 11 21 11"></polygon>
            </g>
        </g>
    </g>
</svg>