<?xml version="1.0" encoding="UTF-8"?>
<svg width="136px" height="47px" viewBox="0 0 136 47" version="1.1" xmlns="http://www.w3.org/2000/svg" xmlns:xlink="http://www.w3.org/1999/xlink">
    <!-- Generator: Sketch 48.2 (47327) - http://www.bohemiancoding.com/sketch -->
    <title>Group 4</title>
    <desc>Created with Sketch.</desc>
    <defs></defs>
    <g id="Notemask---Home-—-Mobile" stroke="none" stroke-width="1" fill="none" fill-rule="evenodd" transform="translate(-24.000000, -24.000000)">
        <g id="Group-4" transform="translate(24.000000, 24.000000)">
            <g id="Group-3" transform="translate(47.000000, 17.000000)">
                <path d="M8.23642399,8.95371669 L8.23642399,0 L11.3787564,0 L11.3787564,13.7447405 L8.08028325,13.7447405 L3.16184997,4.9088359 L3.16184997,13.7447405 L0,13.7447405 L0,0 L3.29847311,0 L8.23642399,8.95371669 Z M17.8251383,14 C17.0184071,14 16.2930105,13.8658265 15.6489268,13.5974755 C15.004843,13.3291244 14.4583559,12.9691467 14.009449,12.5175316 C13.5605421,12.0659164 13.2157348,11.5390399 12.9750166,10.9368864 C12.7342984,10.3347328 12.6139411,9.69331804 12.6139411,9.01262272 C12.6139411,8.33192741 12.7342984,7.69051259 12.9750166,7.08835905 C13.2157348,6.4862055 13.5605421,5.95932905 14.009449,5.50771388 C14.4583559,5.05609872 15.004843,4.69612102 15.6489268,4.42776999 C16.2930105,4.15941895 17.0184071,4.02524544 17.8251383,4.02524544 C18.6448813,4.02524544 19.3767837,4.15941895 20.0208674,4.42776999 C20.6649512,4.69612102 21.2114383,5.05609872 21.6603452,5.50771388 C22.1092521,5.95932905 22.4540594,6.4862055 22.6947776,7.08835905 C22.9354958,7.69051259 23.0558531,8.33192741 23.0558531,9.01262272 C23.0558531,9.69331804 22.9354958,10.3347328 22.6947776,10.9368864 C22.4540594,11.5390399 22.1092521,12.0659164 21.6603452,12.5175316 C21.2114383,12.9691467 20.6649512,13.3291244 20.0208674,13.5974755 C19.3767837,13.8658265 18.6448813,14 17.8251383,14 Z M17.8251383,11.42777 C18.1634449,11.42777 18.4724704,11.365592 18.7522239,11.2412342 C19.0319775,11.1168764 19.2694392,10.9434326 19.4646161,10.7208976 C19.659793,10.4983626 19.8126792,10.2431057 19.9232795,9.95511921 C20.0338797,9.66713273 20.089179,9.35297038 20.089179,9.01262272 C20.089179,8.68536536 20.0338797,8.37447553 19.9232795,8.0799439 C19.8126792,7.78541227 19.659793,7.53015536 19.4646161,7.3141655 C19.2694392,7.09817564 19.0319775,6.92473184 18.7522239,6.79382889 C18.4724704,6.66292595 18.1634449,6.59747546 17.8251383,6.59747546 C17.4868317,6.59747546 17.1810591,6.66292595 16.9078115,6.79382889 C16.6345638,6.92473184 16.400355,7.09817564 16.2051781,7.3141655 C16.0100012,7.53015536 15.8603679,7.78541227 15.7562735,8.0799439 C15.6521792,8.37447553 15.6001328,8.68536536 15.6001328,9.01262272 C15.6001328,9.35297038 15.6521792,9.66713273 15.7562735,9.95511921 C15.8603679,10.2431057 16.0100012,10.4983626 16.2051781,10.7208976 C16.400355,10.9434326 16.6345638,11.1168764 16.9078115,11.2412342 C17.1810591,11.365592 17.4868317,11.42777 17.8251383,11.42777 Z M30.126798,13.7447405 C29.9055975,13.7840114 29.629101,13.8200092 29.2973003,13.8527349 C28.9654996,13.8854607 28.5784045,13.9018233 28.1360035,13.9018233 C27.7846851,13.9018233 27.4138546,13.8756431 27.0235008,13.8232819 C26.633147,13.7709207 26.2720751,13.6367472 25.9402744,13.4207574 C25.6084737,13.2047675 25.3352301,12.87097 25.1205355,12.4193548 C24.9058409,11.9677397 24.7984952,11.3492325 24.7984952,10.5638149 L24.7984952,6.51893408 L23.3151582,6.51893408 L23.3151582,4.28050491 L24.7984952,4.28050491 L24.7984952,1.47265077 L27.7651693,1.47265077 L27.7651693,4.28050491 L29.9121044,4.28050491 L29.9121044,6.51893408 L27.7651693,6.51893408 L27.7651693,9.89621318 C27.7651693,10.2496511 27.7976983,10.5310882 27.8627572,10.740533 C27.9278162,10.9499777 28.0188974,11.1103314 28.1360035,11.2215989 C28.2531097,11.3328664 28.3897315,11.4081344 28.545873,11.4474053 C28.7020145,11.4866762 28.8711653,11.5063114 29.0533304,11.5063114 C29.2354955,11.5063114 29.4241637,11.5030388 29.6193406,11.4964937 C29.8145175,11.4899485 29.9836682,11.4735859 30.126798,11.4474053 L30.126798,13.7447405 Z M33.1576012,9.73913043 C33.170613,10.0271169 33.2129007,10.2987365 33.2844656,10.5539972 C33.3560305,10.8092579 33.4731348,11.0317896 33.6357823,11.2215989 C33.7984297,11.4114081 34.0098681,11.5619443 34.270104,11.6732118 C34.5303399,11.7844793 34.8556298,11.8401122 35.2459836,11.8401122 C35.7664554,11.8401122 36.1600562,11.7353914 36.426798,11.5259467 C36.6935397,11.316502 36.878955,11.0612451 36.9830493,10.7601683 L39.9106882,10.7601683 C39.8456292,11.2052383 39.692743,11.6241215 39.4520248,12.0168303 C39.2113066,12.4095391 38.8925225,12.7531542 38.4956628,13.0476858 C38.0988031,13.3422175 37.6303855,13.5745667 37.0903961,13.7447405 C36.5504067,13.9149144 35.9421145,14 35.2655012,14 C34.4457582,14 33.7203616,13.8789166 33.0892897,13.6367461 C32.4582177,13.3945757 31.9279951,13.0509606 31.4986059,12.6058906 C31.0692167,12.1608206 30.7439268,11.6339441 30.5227263,11.0252454 C30.3015258,10.4165467 30.1909272,9.74567921 30.1909272,9.01262272 C30.1909272,8.31883711 30.2982729,7.67087725 30.5129675,7.0687237 C30.7276621,6.46657015 31.0464462,5.9396937 31.4693295,5.48807854 C31.8922128,5.03646338 32.4126767,4.6797582 33.0307369,4.41795231 C33.6487971,4.15614642 34.3676879,4.02524544 35.1874308,4.02524544 C35.9291031,4.02524544 36.5959475,4.14305633 37.1879841,4.37868163 C37.7800207,4.61430693 38.287473,4.92846928 38.7103563,5.32117812 C39.1332396,5.71388696 39.4585295,6.17204039 39.6862359,6.69565217 C39.9139423,7.21926396 40.0277938,7.76904808 40.0277938,8.34502104 C40.0277938,8.54137546 40.0245409,8.75081703 40.018035,8.97335203 C40.0115291,9.19588704 39.982253,9.45114396 39.9302058,9.73913043 L33.1576012,9.73913043 Z M35.1679133,6.02805049 C34.5823826,6.02805049 34.1009534,6.19822177 33.7236114,6.53856942 C33.3462694,6.87891708 33.1576012,7.36979576 33.1576012,8.0112202 L37.1001549,8.0112202 C37.1001549,7.39597635 36.9212454,6.91164272 36.5634211,6.55820477 C36.2055968,6.20476682 35.7404322,6.02805049 35.1679133,6.02805049 Z" id="Notemask-Copy" fill="#F3EDDB"></path>
                <path d="M53.127661,13.7447405 L53.127661,8.63955119 C53.127661,7.99812676 53.0138095,7.4974305 52.7861031,7.13744741 C52.5583967,6.77746431 52.1908191,6.59747546 51.6833592,6.59747546 C51.4621587,6.59747546 51.2539731,6.63674575 51.0587962,6.71528752 C50.8636193,6.79382928 50.6944685,6.92473027 50.5513388,7.10799439 C50.4082091,7.29125851 50.2976105,7.53669785 50.2195397,7.84431978 C50.141469,8.1519417 50.1024342,8.53482707 50.1024342,8.99298738 L50.1024342,13.7447405 L47.2138305,13.7447405 L47.2138305,8.61991585 C47.2138305,7.97849142 47.1032319,7.48106769 46.8820314,7.12762973 C46.6608309,6.77419178 46.303012,6.59747546 45.8085638,6.59747546 C45.5743516,6.59747546 45.3596602,6.63674575 45.1644833,6.71528752 C44.9693064,6.79382928 44.8001556,6.92800279 44.6570259,7.11781206 C44.5138962,7.30762133 44.4000447,7.55960572 44.315468,7.87377279 C44.2308914,8.18793986 44.1886037,8.58064281 44.1886037,9.05189341 L44.1886037,13.7447405 L41.3,13.7447405 L41.3,4.28050491 L44.1886037,4.28050491 L44.1886037,5.65497896 C44.3967924,5.20990895 44.7350939,4.8302961 45.2035185,4.51612903 C45.671943,4.20196196 46.2379476,4.04488079 46.901549,4.04488079 C47.721292,4.04488079 48.3523545,4.20850701 48.7947555,4.53576438 C49.2371564,4.86302174 49.5559406,5.26881478 49.7511175,5.75315568 C49.9983416,5.25572449 50.3756779,4.84665892 50.8831379,4.5259467 C51.3905978,4.20523449 51.9956371,4.04488079 52.698274,4.04488079 C53.3748872,4.04488079 53.9278801,4.1528741 54.3572693,4.36886396 C54.7866585,4.58485381 55.12496,4.87283597 55.3721841,5.23281907 C55.6194082,5.59280217 55.7853061,6.00514027 55.8698827,6.46984572 C55.9544594,6.93455118 55.9967471,7.41561229 55.9967471,7.91304348 L55.9967471,13.7447405 L53.127661,13.7447405 Z M62.3650586,11.42777 C62.7033653,11.42777 63.0091378,11.3623195 63.2823855,11.2314165 C63.5556331,11.1005136 63.7898419,10.9270698 63.9850188,10.7110799 C64.1801957,10.4950901 64.333082,10.2398332 64.4436822,9.94530154 C64.5542825,9.65076992 64.6095818,9.33988008 64.6095818,9.01262272 C64.6095818,8.68536536 64.5542825,8.37774805 64.4436822,8.08976157 C64.333082,7.80177509 64.1801957,7.54651818 63.9850188,7.32398317 C63.7898419,7.10144816 63.5556331,6.92473184 63.2823855,6.79382889 C63.0091378,6.66292595 62.7033653,6.59747546 62.3650586,6.59747546 C62.026752,6.59747546 61.7209795,6.66292595 61.4477318,6.79382889 C61.1744841,6.92473184 60.9402754,7.10144816 60.7450985,7.32398317 C60.5499216,7.54651818 60.3970353,7.80177509 60.2864351,8.08976157 C60.1758348,8.37774805 60.1205355,8.68536536 60.1205355,9.01262272 C60.1205355,9.33988008 60.1758348,9.65076992 60.2864351,9.94530154 C60.3970353,10.2398332 60.5499216,10.4950901 60.7450985,10.7110799 C60.9402754,10.9270698 61.1744841,11.1005136 61.4477318,11.2314165 C61.7209795,11.3623195 62.026752,11.42777 62.3650586,11.42777 Z M67.5957734,4.28050491 L67.5957734,13.7447405 L64.6095818,13.7447405 L64.6095818,12.4095372 C64.4924756,12.6320722 64.3363364,12.8382412 64.1411595,13.0280505 C63.9459826,13.2178598 63.7215326,13.381486 63.4678026,13.5189341 C63.2140726,13.6563822 62.9375762,13.767648 62.6383049,13.8527349 C62.3390337,13.9378218 62.0397669,13.9803647 61.7404957,13.9803647 C61.0638824,13.9803647 60.4425786,13.8527362 59.8765656,13.5974755 C59.3105526,13.3422147 58.8258706,12.9953271 58.422505,12.5568022 C58.0191394,12.1182774 57.706861,11.5946735 57.4856605,10.9859748 C57.2644601,10.3772761 57.1538615,9.71949863 57.1538615,9.01262272 C57.1538615,8.30574682 57.2644601,7.64796938 57.4856605,7.03927069 C57.706861,6.43057199 58.0191394,5.90696806 58.422505,5.4684432 C58.8258706,5.02991833 59.3105526,4.68303073 59.8765656,4.42776999 C60.4425786,4.17250924 61.0638824,4.04488079 61.7404957,4.04488079 C62.0397669,4.04488079 62.3390337,4.0874236 62.6383049,4.17251052 C62.9375762,4.25759743 63.2140726,4.37213579 63.4678026,4.51612903 C63.7215326,4.66012227 63.9459826,4.83029355 64.1411595,5.02664797 C64.3363364,5.22300238 64.4924756,5.42589891 64.6095818,5.63534362 L64.6095818,4.28050491 L67.5957734,4.28050491 Z M74.3739544,8.16830295 C74.7903318,8.2861156 75.1806797,8.41374405 75.54501,8.55119215 C75.9093402,8.68864024 76.2281243,8.85881151 76.501372,9.06171108 C76.7746196,9.26461065 76.9925639,9.51659504 77.1552113,9.81767181 C77.3178587,10.1187486 77.3991812,10.4983614 77.3991812,10.9565217 C77.3991812,11.5194044 77.2885827,11.9939205 77.0673822,12.3800842 C76.8461817,12.7662478 76.5404091,13.0804102 76.1500553,13.3225806 C75.7597015,13.5647511 75.3075485,13.7381949 74.7935827,13.8429173 C74.2796168,13.9476396 73.7298768,14 73.1443461,14 C71.8041314,14 70.746939,13.7054728 69.9727373,13.1164095 C69.1985356,12.5273463 68.8114406,11.683035 68.8114406,10.5834502 L71.7390794,10.5834502 C71.7390794,11.0808814 71.8789541,11.4375866 72.1587077,11.6535764 C72.4384612,11.8695663 72.7995331,11.9775596 73.2419341,11.9775596 C73.6062643,11.9775596 73.9022781,11.9088366 74.1299845,11.7713885 C74.3576909,11.6339404 74.4715424,11.4081362 74.4715424,11.0939691 C74.4715424,10.910705 74.4227489,10.7634414 74.3251604,10.6521739 C74.227572,10.5409064 74.0779386,10.4361856 73.8762558,10.3380084 C73.674573,10.2398312 73.414341,10.1416555 73.0955521,10.0434783 C72.7767632,9.94530105 72.3961739,9.82421764 71.953773,9.6802244 C71.5634192,9.56241175 71.1925886,9.4347833 70.8412702,9.2973352 C70.4899518,9.15988711 70.1809263,8.99298836 69.9141846,8.79663394 C69.6474428,8.60027952 69.4360043,8.35156766 69.2798628,8.05049088 C69.1237213,7.74941411 69.0456517,7.36980126 69.0456517,6.91164095 C69.0456517,5.92986886 69.4197351,5.20336842 70.1679133,4.73211781 C70.9160914,4.26086721 71.9277431,4.02524544 73.2028989,4.02524544 C73.8795121,4.02524544 74.4747927,4.10705856 74.9887586,4.27068724 C75.5027244,4.43431592 75.9256014,4.66012011 76.2574021,4.94810659 C76.5892028,5.23609307 76.8396761,5.57643562 77.0088294,5.96914446 C77.1779827,6.3618533 77.2625581,6.78073644 77.2625581,7.22580645 L74.3154016,7.22580645 C74.3154016,6.83309762 74.2145618,6.52875283 74.012879,6.31276297 C73.8111962,6.09677311 73.5021707,5.9887798 73.0857933,5.9887798 C72.7865221,5.9887798 72.5262901,6.05750282 72.3050896,6.19495091 C72.0838891,6.332399 71.9732906,6.5451131 71.9732906,6.83309958 C71.9732906,7.00327341 72.0253369,7.14399196 72.1294313,7.25525947 C72.2335256,7.36652697 72.3864119,7.46797523 72.5880947,7.55960729 C72.7897775,7.65123935 73.0402508,7.74287004 73.339522,7.8345021 C73.6387933,7.92613417 73.9836006,8.0374 74.3739544,8.16830295 Z M84.4701261,9.01262272 L88.1199159,13.7447405 L84.5677141,13.7447405 L81.6791104,9.77840112 L81.6791104,13.7447405 L78.6929188,13.7447405 L78.6929188,0 L81.6791104,0 L81.6791104,8.28611501 L84.5872317,4.28050491 L88.1394335,4.28050491 L84.4701261,9.01262272 Z" id="Notemask-Copy-2" fill="#E26D56"></path>
            </g>
            <g id="Group-5">
                <rect id="Rectangle-6" fill="#F3EDDB" x="6" y="17" width="21" height="3"></rect>
                <rect id="Rectangle-6-Copy-3" fill="#F3EDDB" x="6" y="11" width="10" height="3"></rect>
                <path d="M1.5,1.5 L1.5,41.5 L22.7093566,41.5 L31.5,32.1667242 L31.5,1.5 L1.5,1.5 Z" id="Rectangle-5" stroke="#E26D56" stroke-width="3" transform="translate(16.500000, 21.500000) scale(1, -1) translate(-16.500000, -21.500000) "></path>
                <rect id="Rectangle-10" fill="#323453" x="3" y="40" width="27" height="3"></rect>
                <rect id="Rectangle-11" fill="#E26D56" x="6" y="31" width="3" height="16"></rect>
                <rect id="Rectangle-11-Copy" fill="#E26D56" x="12" y="31" width="3" height="16"></rect>
                <rect id="Rectangle-11-Copy-2" fill="#E26D56" x="18" y="31" width="3" height="16"></rect>
                <rect id="Rectangle-11-Copy-3" fill="#E26D56" x="24" y="31" width="3" height="16"></rect>
                <polygon id="Rectangle-12" fill="#E26D56" points="21 1 27.4166667 5.54545455 32 11 21 11"></polygon>
            </g>
        </g>
    </g>
</svg>