<?xml version="1.0" standalone="no"?>
<!DOCTYPE svg PUBLIC "-//W3C//DTD SVG 20010904//EN"
 "http://www.w3.org/TR/2001/REC-SVG-20010904/DTD/svg10.dtd">
<svg version="1.0" xmlns="http://www.w3.org/2000/svg"
 width="700.000000pt" height="700.000000pt" viewBox="0 0 700.000000 700.000000"
 preserveAspectRatio="xMidYMid meet">
<metadata>
Created by potrace 1.11, written by Peter Selinger 2001-2013
</metadata>
<g transform="translate(0.000000,700.000000) scale(0.100000,-0.100000)"
fill="#000000" stroke="none">
<path d="M0 3500 l0 -3500 3500 0 3500 0 0 3500 0 3500 -3500 0 -3500 0 0
-3500z m5013 2233 l627 -616 -2 -1956 -3 -1956 -167 -3 -168 -2 0 1885 0 1885
-710 0 -710 0 0 520 0 520 -1090 0 -1090 0 0 -2405 0 -2405 -167 2 -168 3 -3
2560 c-1 1408 0 2566 3 2573 3 9 315 12 1512 12 l1508 -1 628 -616z m-1728
-593 l0 -165 -605 0 -605 0 -3 155 c-1 85 0 160 2 167 4 11 121 13 608 11
l603 -3 0 -165z m1695 -655 l0 -165 -1455 0 -1455 0 0 165 0 165 1455 0 1455
0 0 -165z m0 -655 l0 -170 -1455 0 -1455 0 0 163 c0 90 3 167 7 170 3 4 658 7
1455 7 l1448 0 0 -170z m-2630 -1775 c0 -283 1 -591 1 -685 0 -93 -1 -294 -1
-445 l0 -275 -165 0 -165 0 0 960 0 960 165 0 165 0 0 -515z m660 -445 l0
-960 -165 0 -165 0 -2 277 c-2 153 -2 585 0 961 l2 682 165 0 165 0 0 -960z
m658 3 l-3 -958 -165 0 -165 0 -3 958 -2 957 170 0 170 0 -2 -957z m654 275
c2 -376 2 -808 0 -961 l-2 -277 -165 0 -165 0 0 960 0 960 165 0 165 0 2 -682z
m658 -278 l0 -960 -165 0 -165 0 0 275 c0 151 -1 352 -1 445 0 94 1 402 1 685
l0 515 165 0 165 0 0 -960z"/>
</g>
</svg>
