<?xml version="1.0" encoding="UTF-8"?>
<svg width="22px" height="22px" viewBox="0 0 22 22" version="1.1" xmlns="http://www.w3.org/2000/svg" xmlns:xlink="http://www.w3.org/1999/xlink">
    <!-- Generator: Sketch 48.2 (47327) - http://www.bohemiancoding.com/sketch -->
    <title>settings-icon</title>
    <desc>Created with Sketch.</desc>
    <defs></defs>
    <g id="Notemask---Home" stroke="none" stroke-width="1" fill="none" fill-rule="evenodd" transform="translate(-1098.000000, -594.000000)">
        <g id="Group" transform="translate(320.000000, 580.000000)" fill="#323453">
            <path d="M788.999985,29.4 C786.570221,29.4 784.6,27.4297827 784.6,25 C784.6,22.5702173 786.570221,20.6 788.999985,20.6 C791.429764,20.6 793.4,22.5702173 793.4,25 C793.4,27.4297827 791.429764,29.4 788.999985,29.4 Z M799.514145,27.5758287 L798.812526,27.1908288 C798.473853,27.0029212 798.28504,26.6454212 798.338384,26.2741713 C798.401177,25.8570787 798.435044,25.4354213 798.435044,25 C798.435044,24.5645787 798.401177,24.1429213 798.338384,23.7258287 C798.28504,23.3545788 798.468911,22.9970788 798.904389,22.75875 L799.514145,22.4241713 C799.920553,22.2041712 800.099628,21.74125 799.944681,21.3241712 C799.736681,20.7558287 799.470539,20.2104212 799.165734,19.6879212 C799.093203,19.5595788 799.010933,19.4266712 798.928663,19.2983287 C798.604526,18.7895788 798.236783,18.3083288 797.83023,17.8591712 C797.525425,17.52 797.012619,17.4420788 796.519,17.7125 L795.89965,18.0516712 C795.560978,18.2395787 795.135239,18.2120787 794.825636,17.9829213 C794.124017,17.4558288 793.344925,17.025 792.498243,16.7041713 C792.135354,16.5666712 791.903109,16.2275 791.903109,15.8608287 L791.903109,15.08625 C791.903109,14.6416671 791.569248,14.26125 791.109583,14.17875 C790.422514,14.0595833 789.720938,14 788.999987,14 C788.27905,14 787.577474,14.0595833 786.890405,14.17875 C786.43074,14.26125 786.096879,14.6416671 786.096879,15.08625 L786.096879,15.8608287 C786.096879,16.2275 785.864634,16.5666712 785.501745,16.7041713 C784.655005,17.025 783.876,17.4558288 783.17441,17.9829213 C782.86475,18.2120787 782.438967,18.2395787 782.100265,18.0516712 L781.393835,17.6620787 C780.987398,17.4420788 780.47452,17.52 780.1697,17.8591712 C779.763264,18.3083288 779.395532,18.7895788 779.071351,19.2983287 C778.989096,19.4266712 778.90684,19.5595788 778.834263,19.6879212 C778.529437,20.2104212 778.263317,20.7558287 778.055262,21.3241712 C777.900429,21.74125 778.079454,22.2041712 778.485889,22.4241713 L779.187475,22.8091712 C779.526178,22.9970788 779.714876,23.3545787 779.661647,23.7258287 C779.598753,24.1429213 779.564886,24.5645787 779.564886,25 C779.564886,25.4354212 779.598753,25.8570787 779.661647,26.2741713 C779.714876,26.6454212 779.526178,27.0029212 779.187475,27.1908288 L778.485889,27.5758287 C778.079454,27.7957875 777.900429,28.25875 778.055262,28.6757875 C778.263317,29.2442125 778.529437,29.7895375 778.834263,30.3120375 C778.90684,30.4404625 778.989096,30.5732875 779.071351,30.7017125 C779.395532,31.2104625 779.763264,31.6917125 780.1697,32.1407875 C780.47452,32.48 780.987398,32.5579625 781.393835,32.3379625 L782.100265,31.9482875 C782.438967,31.7604625 782.86475,31.7879625 783.17441,32.0170375 C783.876,32.5442125 784.655005,32.975 785.501745,33.2957875 C785.864634,33.4332875 786.096879,33.7725 786.096879,34.1392125 L786.096879,34.91375 C786.096879,35.3582875 786.43074,35.73875 786.890405,35.82125 C787.577474,35.9404625 788.27905,36 788.999987,36 C789.720938,36 790.422514,35.9404625 791.109583,35.82125 C791.569248,35.73875 791.903109,35.3582875 791.903109,34.91375 L791.903109,34.1392125 C791.903109,33.7725 792.135354,33.4332875 792.498243,33.2957875 C793.344925,32.975 794.124017,32.5442125 794.825636,32.0170375 C795.135239,31.7879625 795.560978,31.7604625 795.89965,31.9482875 L796.606212,32.3379625 C797.012619,32.5579625 797.525425,32.48 797.83023,32.1407875 C798.236783,31.6917125 798.604526,31.2104625 798.928663,30.7017125 C799.010933,30.5732875 799.093203,30.4404625 799.165734,30.3120375 C799.470539,29.7895375 799.736681,29.2442125 799.944681,28.6757875 C800.099628,28.25875 799.920553,27.7957875 799.514145,27.5758287 Z" id="settings-icon"></path>
        </g>
    </g>
</svg>