<?xml version="1.0" encoding="UTF-8"?>
<svg width="30px" height="30px" viewBox="0 0 30 30" version="1.1" xmlns="http://www.w3.org/2000/svg" xmlns:xlink="http://www.w3.org/1999/xlink">
    <!-- Generator: Sketch 48.2 (47327) - http://www.bohemiancoding.com/sketch -->
    <title>twitter-icon</title>
    <desc>Created with Sketch.</desc>
    <defs></defs>
    <g id="footer-desktop" stroke="none" stroke-width="1" fill="none" fill-rule="evenodd" transform="translate(-1090.000000, -35.000000)">
        <g id="Group-7" fill="#323453">
            <path d="M1090,50 C1090,41.7157283 1096.71573,35 1105,35 C1113.28427,35 1120,41.7157283 1120,50 C1120,58.2842717 1113.28427,65 1105,65 C1096.71573,65 1090,58.2842717 1090,50 Z M1104.55075,47.1921879 L1104.58223,47.7112217 L1104.05762,47.6476666 C1102.14804,47.4040384 1100.47978,46.5778213 1099.06334,45.1902002 L1098.37085,44.5016859 L1098.19248,45.0101273 C1097.81477,46.1435277 1098.05609,47.3404833 1098.843,48.1455154 C1099.26269,48.5904015 1099.16826,48.6539567 1098.4443,48.3891435 C1098.19248,48.3044033 1097.97215,48.2408481 1097.95116,48.2726257 C1097.87772,48.3467734 1098.12953,49.3106934 1098.32888,49.6920243 C1098.60168,50.2216507 1099.15777,50.7406846 1099.76631,51.0478679 L1100.28043,51.291496 L1099.67188,51.3020885 C1099.08432,51.3020885 1099.06334,51.312681 1099.12629,51.5351241 C1099.33613,52.2236384 1100.16502,52.9545228 1101.08833,53.2722986 L1101.73884,53.4947417 L1101.17227,53.8337025 C1100.33289,54.3209588 1099.34663,54.5963645 1098.36036,54.6175496 C1097.88821,54.6281421 1097.5,54.6705122 1097.5,54.7022898 C1097.5,54.8082151 1098.78005,55.4013966 1099.52499,55.6344322 C1101.75983,56.3229465 1104.41435,56.0263557 1106.40787,54.8505852 C1107.82431,54.0137755 1109.24076,52.3507487 1109.90177,50.7406846 C1110.2585,49.8826898 1110.61524,48.3149958 1110.61524,47.5629263 C1110.61524,47.0756701 1110.64671,47.0121149 1111.23428,46.4295259 C1111.58052,46.090565 1111.90578,45.7198266 1111.96873,45.6139013 C1112.07365,45.4126433 1112.06316,45.4126433 1111.52806,45.5927163 C1110.63622,45.9104921 1110.51032,45.868122 1110.95099,45.3914582 C1111.27625,45.0524974 1111.66446,44.4381308 1111.66446,44.2580578 C1111.66446,44.2262802 1111.50707,44.2792429 1111.32871,44.3745756 C1111.13985,44.4805009 1110.72016,44.6393888 1110.40539,44.7347215 L1109.83882,44.9147945 L1109.3247,44.5652411 C1109.04141,44.3745756 1108.64271,44.1627251 1108.43286,44.0991699 C1107.89776,43.9508745 1107.07937,43.9720596 1106.59673,44.14154 C1105.2852,44.6182037 1104.45632,45.8469369 1104.55075,47.1921879 Z" id="twitter-icon"></path>
        </g>
    </g>
</svg>